<svg xmlns="http://www.w3.org/2000/svg" width="908" height="645">
 <!-- Created with Image Occlusion Enhanced -->
 <g>
  <title>Labels</title>
 </g>
 <g>
  <title>Masks</title>
  <g id="39800cc1d6f84b3696b2b11f6bbd0b51-oa-1">
   <rect stroke="#2D2D2D" height="48.8189" width="23.62203" y="324.29131" x="361.29129" fill="#FFEBA2"/>
   <rect height="38.58268" width="121.25984" y="421.9291" x="221.92123" stroke="#2D2D2D" fill="#FFEBA2"/>
   <rect height="44.09449" width="99.2126" y="420.3543" x="518.77161" stroke="#2D2D2D" fill="#FFEBA2"/>
   <rect height="37.00787" width="128.34645" y="551.06296" x="221.13382" stroke="#2D2D2D" fill="#FFEBA2"/>
   <rect height="33.85827" width="106.29921" y="547.91335" x="535.30704" stroke="#2D2D2D" fill="#FFEBA2"/>
   <rect height="25.98425" width="99.2126" y="591.22044" x="32.15745" stroke="#2D2D2D" fill="#FFEBA2"/>
   <rect height="39.37008" width="38.58268" y="422.7165" x="32.94485" stroke-linecap="null" stroke-linejoin="null" stroke-dasharray="null" stroke="#2D2D2D" fill="#FFEBA2"/>
   <rect height="36.22047" width="97.63779" y="422.7165" x="798.29916" stroke-linecap="null" stroke-linejoin="null" stroke-dasharray="null" stroke="#2D2D2D" fill="#FFEBA2"/>
   <rect height="31.49606" width="25.98425" y="548.70075" x="37.66926" stroke-linecap="null" stroke-linejoin="null" stroke-dasharray="null" stroke="#2D2D2D" fill="#FFEBA2"/>
   <rect height="30.70866" width="117.32283" y="330.59052" x="539.24405" stroke-linecap="null" stroke-linejoin="null" stroke-dasharray="null" stroke="#2D2D2D" fill="#FFEBA2"/>
  </g>
  <g id="39800cc1d6f84b3696b2b11f6bbd0b51-oa-2">
   <rect height="28.34646" width="98.42519" y="333.74013" x="706.17318" stroke-linecap="null" stroke-linejoin="null" stroke-dasharray="null" stroke="#2D2D2D" fill="#FFEBA2"/>
   <g>
    <rect height="32.28346" width="77.95275" y="421.1417" x="105.3858" stroke="#2D2D2D" fill="#FFEBA2"/>
    <rect height="41.73228" width="96.85039" y="419.5669" x="380.97634" stroke="#2D2D2D" fill="#FFEBA2"/>
    <rect height="45.66929" width="100" y="417.20469" x="659.71649" stroke="#2D2D2D" fill="#FFEBA2"/>
    <rect height="29.13386" width="80.31496" y="547.91335" x="98.29918" stroke="#2D2D2D" fill="#FFEBA2"/>
    <rect height="33.07087" width="108.66141" y="547.12595" x="384.91335" stroke="#2D2D2D" fill="#FFEBA2"/>
    <rect height="44.09449" width="97.63779" y="541.61414" x="684.91334" stroke="#2D2D2D" fill="#FFEBA2"/>
    <rect height="29.13386" width="92.12598" y="592.00784" x="177.82674" stroke-linecap="null" stroke-linejoin="null" stroke-dasharray="null" stroke="#2D2D2D" fill="#FFEBA2"/>
    <rect height="33.85827" width="69.29134" y="328.22832" x="425.07083" stroke-linecap="null" stroke-linejoin="null" stroke-dasharray="null" stroke="#2D2D2D" fill="#FFEBA2"/>
   </g>
  </g>
  <g id="39800cc1d6f84b3696b2b11f6bbd0b51-oa-3">
   <rect height="41.73228" width="149.60629" y="321.92911" x="137.66926" stroke="#2D2D2D" fill="#FFEBA2"/>
   <rect height="39.37008" width="154.3307" y="374.68501" x="109.3228" stroke="#2D2D2D" fill="#FFEBA2"/>
   <rect height="45.66929" width="173.22834" y="489.64564" x="144.75587" stroke="#2D2D2D" fill="#FFEBA2"/>
  </g>
 </g>
</svg>