<svg xmlns="http://www.w3.org/2000/svg" width="915" height="455">
 <!-- Created with Image Occlusion Enhanced -->
 <g>
  <title>Labels</title>
 </g>
 <g>
  <title>Masks</title>
  <g id="8c67f5c4f6c049c9a018c51ff1e24303-oa-1">
   <rect height="20" width="231.66667" y="255" x="52.77778" stroke="#2D2D2D" fill="#FFEBA2"/>
   <rect height="18.33333" width="272.77778" y="282.22222" x="54.44444" stroke="#2D2D2D" fill="#FFEBA2"/>
  </g>
  <g id="8c67f5c4f6c049c9a018c51ff1e24303-oa-2">
   <g>
    <rect height="21.11111" width="58.88889" y="67.77778" x="167.77778" stroke="#2D2D2D" fill="#FFEBA2"/>
    <rect height="19.44444" width="140" y="128.88889" x="220" stroke="#2D2D2D" fill="#FFEBA2"/>
   </g>
   <rect height="15.55556" width="148.33333" y="368.33333" x="87.22222" stroke="#2D2D2D" fill="#FFEBA2"/>
  </g>
  <g id="8c67f5c4f6c049c9a018c51ff1e24303-oa-3">
   <rect height="17.22222" width="206.66667" y="391.66667" x="137.77778" stroke="#2D2D2D" fill="#FFEBA2"/>
   <g>
    <rect height="15.55556" width="151.66667" y="94.44444" x="54.44444" stroke="#2D2D2D" fill="#FFEBA2"/>
    <rect height="19.44444" width="123.33333" y="128.33333" x="491.11111" stroke="#2D2D2D" fill="#FFEBA2"/>
   </g>
  </g>
  <g id="8c67f5c4f6c049c9a018c51ff1e24303-oa-4">
   <rect stroke="#2D2D2D" height="15" width="182.77777" y="415.55556" x="230" fill="#FFEBA2"/>
   <g>
    <rect height="20" width="140.55556" y="151.11111" x="55" stroke="#2D2D2D" fill="#FFEBA2"/>
    <rect height="21.11111" width="115" y="175" x="53.88889" stroke="#2D2D2D" fill="#FFEBA2"/>
   </g>
  </g>
  <g id="8c67f5c4f6c049c9a018c51ff1e24303-oa-5">
   <rect height="22.77778" width="556.11111" y="196.66667" x="298.33333" stroke="#2D2D2D" fill="#FFEBA2"/>
   <rect height="15" width="111.66667" y="416.66667" x="446.66667" stroke-linecap="null" stroke-linejoin="null" stroke-dasharray="null" stroke="#2D2D2D" fill="#FFEBA2"/>
   <g>
    <rect height="17.22222" width="154.44444" y="152.22222" x="255" stroke="#2D2D2D" fill="#FFEBA2"/>
    <rect height="17.22222" width="66.11111" y="174.44444" x="222.77778" stroke="#2D2D2D" fill="#FFEBA2"/>
   </g>
  </g>
 </g>
</svg>