<svg xmlns="http://www.w3.org/2000/svg" width="905" height="467">
 <!-- Created with Image Occlusion Enhanced -->
 <g>
  <title>Labels</title>
 </g>
 <g>
  <title>Masks</title>
  <g id="361a78f7f2b4423c8db51f4dd927617b-oa-1">
   <rect height="19.42857" width="122.28571" y="226.71429" x="160.71429" stroke="#2D2D2D" fill="#FFEBA2"/>
   <g>
    <rect height="21.14286" width="117.14286" y="49.57143" x="84.71429" stroke="#2D2D2D" fill="#FFEBA2"/>
    <rect height="13.71429" width="38.28571" y="73.57143" x="161.28571" stroke="#2D2D2D" fill="#FFEBA2"/>
   </g>
  </g>
  <g id="361a78f7f2b4423c8db51f4dd927617b-oa-2">
   <rect height="21.14286" width="218.28571" y="89.57143" x="146.42857" stroke="#2D2D2D" fill="#FFEBA2"/>
   <rect height="26.28571" width="100" y="128.42857" x="329.85714" stroke="#2D2D2D" fill="#FFEBA2"/>
   <g>
    <rect height="25.14286" width="88" y="213.57143" x="429.28571" stroke="#2D2D2D" fill="#FFEBA2"/>
    <rect height="19.42857" width="22.85714" y="321.57143" x="680.14286" stroke="#2D2D2D" fill="#FFEBA2"/>
    <rect height="9.14286" width="14.28571" y="270.71429" x="228.14286" stroke="#2D2D2D" fill="#FFEBA2"/>
   </g>
  </g>
  <g id="361a78f7f2b4423c8db51f4dd927617b-oa-3">
   <g>
    <rect height="20.57143" width="404.57143" y="49.57143" x="298.42857" stroke="#2D2D2D" fill="#FFEBA2"/>
    <rect height="20" width="120" y="51.28571" x="757.85714" stroke="#2D2D2D" fill="#FFEBA2"/>
   </g>
   <rect height="28.57143" width="170.28571" y="403.28571" x="137.28571" stroke="#2D2D2D" fill="#FFEBA2"/>
   <rect height="23.42857" width="205.71429" y="403.28571" x="588.14286" stroke="#2D2D2D" fill="#FFEBA2"/>
  </g>
  <g id="361a78f7f2b4423c8db51f4dd927617b-oa-4">
   <rect height="18.85714" width="334.85714" y="442.71429" x="57.28571" stroke="#2D2D2D" fill="#FFEBA2"/>
   <rect height="21.71429" width="237.71429" y="442.71429" x="581.28571" stroke="#2D2D2D" fill="#FFEBA2"/>
   <g>
    <rect height="15.42857" width="189.71429" y="89.57143" x="439" stroke="#2D2D2D" fill="#FFEBA2"/>
    <rect height="57.71429" width="227.42857" y="113.57143" x="449.28571" stroke="#2D2D2D" fill="#FFEBA2"/>
   </g>
  </g>
 </g>
</svg>