<svg xmlns="http://www.w3.org/2000/svg" width="722" height="527">
 <!-- Created with Image Occlusion Enhanced -->
 <g>
  <title>Labels</title>
 </g>
 <g>
  <title>Masks</title>
  <g id="6b4ca3a925fe4f69ba655a382a4e8dbe-oa-1">
   <rect height="34.89933" width="178.52349" y="101.18794" x="243.77178" stroke="#2D2D2D" fill="#FFEBA2"/>
   <rect height="30.20134" width="128.18792" y="137.42955" x="508.20132" stroke="#2D2D2D" fill="#FFEBA2"/>
   <rect height="28.18792" width="150.33557" y="168.30203" x="426.99326" stroke="#2D2D2D" fill="#FFEBA2"/>
   <rect height="26.1745" width="100" y="205.88592" x="463.23487" stroke="#2D2D2D" fill="#FFEBA2"/>
   <rect height="17.44966" width="77.85235" y="239.44297" x="467.26172" stroke="#2D2D2D" fill="#FFEBA2"/>
   <rect height="17.44966" width="81.8792" y="303.20136" x="245.7852" stroke="#2D2D2D" fill="#FFEBA2"/>
  </g>
  <g id="6b4ca3a925fe4f69ba655a382a4e8dbe-oa-2">
   <rect height="25.50336" width="91.94631" y="109.24163" x="80.01339" stroke="#2D2D2D" fill="#FFEBA2"/>
   <rect height="26.84564" width="238.25504" y="138.10069" x="237.06037" stroke="#2D2D2D" fill="#FFEBA2"/>
   <rect height="28.85906" width="153.69128" y="169.64431" x="239.07379" stroke="#2D2D2D" fill="#FFEBA2"/>
   <rect height="34.89933" width="190.60403" y="196.48995" x="238.40265" stroke="#2D2D2D" fill="#FFEBA2"/>
   <rect height="30.20134" width="188.59061" y="232.06042" x="239.74493" stroke="#2D2D2D" fill="#FFEBA2"/>
   <rect height="24.16107" width="102.01343" y="263.60405" x="242.4295" stroke="#2D2D2D" fill="#FFEBA2"/>
  </g>
  <g id="6b4ca3a925fe4f69ba655a382a4e8dbe-oa-3">
   <rect height="38.25503" width="265.10068" y="44.14095" x="102.16104" stroke="#2D2D2D" fill="#FFEBA2"/>
   <rect height="45.63759" width="404.02686" y="376.35573" x="243.77178" stroke-linecap="null" stroke-linejoin="null" stroke-dasharray="null" stroke="#2D2D2D" fill="#FFEBA2"/>
   <rect height="30.87248" width="157.04698" y="410.58392" x="51.82547" stroke-linecap="null" stroke-linejoin="null" stroke-dasharray="null" stroke="#2D2D2D" fill="#FFEBA2"/>
   <rect height="25.50336" width="422.14766" y="444.8121" x="251.82547" stroke-linecap="null" stroke-linejoin="null" stroke-dasharray="null" stroke="#2D2D2D" fill="#FFEBA2"/>
   <rect height="30.87248" width="167.78524" y="473.67117" x="62.56372" stroke-linecap="null" stroke-linejoin="null" stroke-dasharray="null" stroke="#2D2D2D" fill="#FFEBA2"/>
  </g>
 </g>
</svg>